<svg width="22" height="22" viewBox="0 0 22 22" fill="none" xmlns="http://www.w3.org/2000/svg">
<path d="M9.8332 7.51531C10.9933 7.40482 12.0982 7.79152 12.8716 8.56492C13.6726 9.36594 14.0593 10.4708 13.9488 11.6309C13.9212 11.8242 13.8107 12.0452 13.6726 12.1833C13.4792 12.3767 13.203 12.4871 12.8992 12.4595C12.402 12.4043 12.0153 11.9623 12.0705 11.4099C12.1258 10.8575 11.96 10.3051 11.5457 9.89074C11.159 9.50404 10.6066 9.33832 10.0542 9.39356C9.50175 9.4488 9.0598 9.0621 9.00456 8.56492C8.97694 8.04011 9.33602 7.57055 9.8332 7.51531ZM9.47413 3.78642C11.7391 3.56545 13.9212 4.31123 15.5232 5.91327C17.1252 7.51531 17.8986 9.72501 17.65 11.9623C17.5948 12.1833 17.5119 12.3767 17.3462 12.5424C17.1529 12.7357 16.9043 12.8186 16.6004 12.791C16.0756 12.7634 15.7166 12.2938 15.7718 11.7966C15.9375 10.0841 15.3299 8.42681 14.1698 7.26671C12.982 6.07899 11.3524 5.49895 9.63985 5.66467C9.11505 5.6923 8.64548 5.33322 8.61786 4.80841C8.56262 4.31123 8.9217 3.84166 9.47413 3.78642ZM9.11505 0.0575383C12.4849 -0.273918 15.7442 0.830936 18.1749 3.26162C20.5779 5.66467 21.738 8.97924 21.3789 12.3214C21.3513 12.57 21.2684 12.7634 21.1303 12.9015C20.937 13.0948 20.6608 13.2053 20.3569 13.1777C19.8598 13.1224 19.4731 12.6805 19.5007 12.1557C19.7769 9.33831 18.8101 6.54856 16.849 4.58744C14.8603 2.5987 12.0982 1.65958 9.28078 1.93579C8.75597 1.96341 8.31403 1.57671 8.25879 1.07953C8.23116 0.554723 8.59024 0.0851597 9.11505 0.0575383ZM5.96621 10.9956L4.36417 12.3214C5.35854 14.4206 7.04345 16.1055 9.14267 17.0999L10.4685 15.4979C10.7171 15.194 11.1867 15.0559 11.5733 15.2217L14.805 16.6304C15.247 16.7961 15.468 17.2933 15.3851 17.7076L14.6669 20.7459C14.5841 21.1603 14.1698 21.4641 13.7278 21.4641C6.15956 21.4641 0 15.3045 0 7.73628C0 7.29433 0.303835 6.88001 0.718155 6.79715L3.7565 6.07899C4.17083 5.99613 4.66801 6.2171 4.83374 6.65904L6.24243 9.89074C6.40815 10.2774 6.27005 10.747 5.96621 10.9956Z" fill="#E36C2F"/>
</svg>
